<?xml version="1.0" standalone="no"?>
<!DOCTYPE svg PUBLIC "-//W3C//DTD SVG 20010904//EN"
 "http://www.w3.org/TR/2001/REC-SVG-20010904/DTD/svg10.dtd">
<svg version="1.0" xmlns="http://www.w3.org/2000/svg"
 width="892.000000pt" height="892.000000pt" viewBox="0 0 892.000000 892.000000"
 preserveAspectRatio="xMidYMid meet">
<metadata>
Created by potrace 1.11, written by Peter Selinger 2001-2013
</metadata>
<g transform="translate(0.000000,892.000000) scale(0.100000,-0.100000)"
fill="#000000" stroke="none">
<path d="M4330 8221 c0 -5 -18 -26 -41 -47 -23 -22 -51 -49 -63 -62 -11 -13
-54 -56 -95 -95 -40 -40 -91 -90 -112 -112 -22 -22 -43 -44 -48 -49 -5 -4 -28
-28 -52 -52 -24 -24 -50 -49 -57 -56 -7 -7 -32 -32 -55 -55 -23 -23 -46 -47
-52 -53 -5 -5 -28 -27 -50 -48 -22 -21 -47 -47 -56 -58 -10 -10 -28 -28 -40
-40 -13 -11 -31 -29 -40 -40 -9 -10 -32 -32 -51 -47 -20 -16 -41 -39 -48 -53
-8 -13 -18 -24 -23 -24 -12 0 -97 -89 -97 -101 0 -5 -5 -9 -12 -9 -13 0 -98
-88 -98 -101 0 -5 -6 -9 -12 -9 -7 0 -31 -21 -53 -46 -22 -25 -49 -53 -59 -62
-59 -52 -96 -91 -96 -101 0 -6 -5 -11 -11 -11 -6 0 -30 -20 -55 -44 -24 -25
-44 -49 -44 -55 0 -6 -5 -11 -11 -11 -6 0 -30 -20 -55 -44 -24 -25 -44 -49
-44 -55 0 -6 -5 -11 -11 -11 -5 0 -338 -327 -739 -727 -401 -401 -918 -916
-1150 -1146 l-420 -418 0 -120 0 -119 325 0 325 0 0 -2070 0 -2070 3325 0
3325 0 0 2070 0 2070 335 0 335 0 0 120 0 121 -50 47 c-28 26 -89 84 -136 130
-46 45 -89 82 -94 82 -6 0 -10 6 -10 13 0 6 -21 30 -45 52 -25 22 -101 95
-170 163 -69 67 -129 122 -135 122 -5 0 -10 4 -10 9 0 13 -87 101 -100 101 -5
0 -10 7 -10 15 0 8 -7 15 -15 15 -8 0 -15 7 -15 15 0 8 -6 15 -13 15 -8 0 -20
11 -27 25 -7 14 -19 25 -27 25 -7 0 -13 7 -13 15 0 8 -7 15 -15 15 -8 0 -15 7
-15 15 0 8 -5 15 -10 15 -13 0 -70 57 -70 70 0 6 -5 10 -10 10 -12 0 -91 76
-335 318 -84 83 -158 152 -164 152 -6 0 -11 7 -11 15 0 8 -7 15 -15 15 -8 0
-15 6 -15 13 0 8 -11 20 -25 27 -14 7 -25 19 -25 27 0 7 -4 13 -10 13 -5 0
-89 79 -185 175 -97 96 -180 175 -185 175 -6 0 -10 4 -10 10 0 11 -89 100
-101 100 -5 0 -9 7 -9 15 0 8 -5 15 -10 15 -11 0 -107 90 -320 303 -76 75
-143 137 -149 137 -6 0 -11 7 -11 15 0 8 -7 15 -15 15 -8 0 -15 5 -15 11 0 6
-13 24 -29 40 -16 16 -34 29 -40 29 -6 0 -11 7 -11 15 0 8 -5 15 -10 15 -13 0
-70 57 -70 70 0 6 -7 10 -15 10 -8 0 -15 7 -15 15 0 8 -5 15 -11 15 -6 0 -24
13 -40 29 -16 16 -29 34 -29 40 0 6 -5 11 -10 11 -6 0 -73 62 -150 138 -76 75
-184 180 -239 232 -56 52 -164 157 -240 233 -77 75 -144 137 -150 137 -6 0
-11 5 -11 11 0 14 -55 69 -69 69 -6 0 -11 7 -11 15 0 8 -7 15 -15 15 -8 0 -15
6 -15 13 0 8 -11 20 -25 27 -14 7 -25 19 -25 27 0 7 -7 13 -15 13 -8 0 -15 7
-15 15 0 8 -7 15 -15 15 -8 0 -15 7 -15 15 0 8 -5 15 -11 15 -6 0 -17 6 -25
14 -8 8 -14 19 -14 25 0 7 -33 11 -90 11 -49 0 -90 -4 -90 -9z m113 -328 c-8
-3 -4 -12 12 -27 14 -13 25 -30 25 -37 0 -10 2 -11 8 -2 9 14 35 -3 45 -30 4
-10 11 -15 17 -12 5 3 10 1 10 -5 0 -15 85 -100 99 -100 6 0 11 -5 11 -11 0
-6 20 -30 44 -55 25 -24 49 -44 55 -44 6 0 11 -5 11 -11 0 -12 66 -79 78 -79
4 0 39 -32 77 -71 39 -39 81 -80 94 -92 12 -12 69 -67 126 -122 57 -55 124
-118 149 -140 25 -22 46 -45 46 -52 0 -9 124 -143 133 -143 6 0 182 -167 293
-277 62 -62 116 -113 120 -113 7 0 226 -212 288 -279 17 -18 41 -43 54 -55 19
-18 102 -100 214 -213 15 -16 33 -34 40 -41 7 -7 32 -31 54 -55 58 -59 102
-97 114 -97 5 0 10 -5 10 -11 0 -13 87 -99 100 -99 6 0 10 -7 10 -15 0 -8 7
-15 15 -15 8 0 15 -5 15 -11 0 -6 6 -17 14 -25 8 -8 19 -14 25 -14 6 0 11 -7
11 -15 0 -8 7 -15 15 -15 8 0 15 -7 15 -15 0 -8 5 -15 11 -15 6 0 20 -11 31
-25 11 -14 25 -25 33 -25 7 0 25 -15 39 -32 30 -38 31 -39 70 -73 16 -14 25
-25 20 -25 -5 0 7 -10 26 -21 19 -12 41 -30 48 -40 7 -10 19 -25 28 -34 8 -8
13 -15 9 -15 -4 0 0 -7 9 -15 8 -8 19 -15 24 -15 5 0 45 -37 88 -81 43 -45 87
-89 96 -98 42 -40 75 -73 100 -98 31 -31 36 -36 96 -96 152 -151 212 -207 221
-207 6 0 11 -7 11 -15 0 -8 7 -15 15 -15 8 0 15 -5 15 -11 0 -14 55 -69 69
-69 6 0 11 -7 11 -15 0 -13 -30 -15 -214 -15 -194 0 -215 -2 -222 -17 -5 -10
-10 -944 -12 -2076 -2 -1283 -7 -2055 -13 -2052 -5 4 -9 1 -9 -4 0 -8 -907
-11 -3040 -11 l-3040 0 0 2064 c0 1135 -3 2071 -6 2080 -5 14 -33 16 -223 14
l-216 -2 215 -6 215 -6 -228 -2 -228 -2 3 23 c2 12 9 22 16 22 7 0 17 7 22 15
5 8 10 11 10 6 0 -5 9 3 20 17 19 24 375 381 416 419 11 9 38 36 61 60 24 23
48 48 53 53 6 6 170 170 365 365 195 195 371 371 392 391 21 20 45 45 55 55 9
11 33 36 55 56 21 20 148 147 282 282 134 135 247 246 252 246 4 0 16 14 26
30 9 17 26 33 36 36 22 7 77 59 77 74 0 5 7 10 15 10 8 0 15 7 15 15 0 8 4 15
9 15 12 0 71 59 71 71 0 5 7 9 15 9 8 0 15 7 15 15 0 8 4 15 9 15 12 0 71 59
71 71 0 5 7 9 15 9 8 0 15 7 15 15 0 8 4 15 9 15 12 0 71 59 71 71 0 5 7 9 15
9 8 0 15 7 15 15 0 8 5 15 11 15 14 0 69 55 69 69 0 6 7 11 15 11 8 0 15 7 15
15 0 8 5 15 11 15 6 0 24 13 40 29 16 16 29 34 29 40 0 6 7 11 15 11 8 0 15 7
15 15 0 8 5 15 11 15 14 0 39 25 39 39 0 6 7 11 15 11 8 0 15 7 15 15 0 8 7
15 15 15 8 0 15 7 15 15 0 8 5 15 11 15 14 0 39 25 39 39 0 6 7 11 15 11 8 0
15 7 15 15 0 8 7 15 15 15 8 0 15 7 15 15 0 8 5 15 11 15 14 0 39 25 39 39 0
6 7 11 15 11 8 0 15 7 15 15 0 8 5 15 11 15 14 0 69 55 69 69 0 6 7 11 15 11
8 0 15 7 15 15 0 8 5 15 11 15 14 0 69 55 69 69 0 6 7 11 15 11 8 0 15 7 15
15 0 8 5 15 11 15 14 0 69 55 69 69 0 6 7 11 15 11 8 0 15 7 15 15 0 8 5 15
11 15 14 0 69 55 69 69 0 6 7 11 15 11 8 0 15 4 15 9 0 5 8 12 18 14 23 6 40
7 25 0z m3042 -7633 c-9 -14 -6045 -14 -6045 0 0 7 1015 10 3026 10 2014 0
3023 -3 3019 -10z"/>
<path d="M3973 5259 c-46 -13 -91 -63 -98 -107 -12 -70 -14 -72 -56 -72 -37 0
-39 -2 -39 -30 0 -28 3 -30 35 -30 19 0 35 -3 35 -7 0 -5 -15 -97 -34 -205
l-33 -198 38 0 37 0 12 68 c6 37 21 128 33 202 l23 135 49 3 c50 3 65 13 65
45 0 14 -9 17 -51 17 l-52 0 6 37 c9 52 38 78 86 76 36 -2 40 1 50 29 6 17 10
33 8 34 -9 9 -87 12 -114 3z"/>
<path d="M2417 5239 c-162 -39 -267 -192 -267 -389 0 -66 4 -86 28 -131 66
-127 233 -157 369 -66 47 31 113 115 113 143 0 9 -12 14 -33 14 -28 0 -38 -7
-65 -45 -40 -58 -98 -87 -172 -88 -111 -1 -165 61 -163 188 2 168 109 304 241
305 79 0 152 -51 152 -106 0 -21 5 -24 40 -24 36 0 40 3 40 24 0 61 -65 147
-124 165 -50 16 -118 20 -159 10z"/>
<path d="M2845 5228 c-3 -7 -25 -137 -50 -288 -25 -151 -48 -287 -51 -302 -5
-27 -4 -28 34 -28 l39 0 22 138 c12 75 29 156 37 179 19 51 57 81 116 89 51 7
92 -19 101 -63 3 -15 -6 -90 -19 -168 -31 -182 -31 -175 10 -175 34 0 35 1 45
53 42 210 50 316 29 361 -34 76 -168 86 -240 18 -34 -32 -35 -26 -13 98 8 47
15 88 15 93 0 12 -70 8 -75 -5z"/>
<path d="M3441 5073 c-25 -9 -66 -37 -92 -63 -85 -85 -114 -246 -59 -334 46
-76 170 -99 268 -50 53 26 101 79 86 93 -19 18 -62 21 -68 6 -10 -28 -69 -55
-119 -55 -69 0 -104 21 -117 71 -21 79 -21 79 169 79 l169 0 6 31 c17 89 -12
178 -71 212 -44 25 -119 30 -172 10z m146 -88 c16 -18 23 -39 23 -66 l0 -39
-130 0 c-144 0 -146 1 -106 61 53 78 165 101 213 44z"/>
<path d="M4238 5074 c-102 -31 -180 -153 -181 -284 -1 -70 14 -109 55 -147 76
-71 241 -50 311 38 l27 34 -32 13 c-29 13 -33 12 -64 -19 -30 -29 -42 -34 -99
-37 -61 -4 -66 -3 -95 26 -25 25 -30 39 -30 76 l0 46 169 0 c191 0 181 -5 181
86 0 94 -38 152 -115 173 -50 14 -69 13 -127 -5z m139 -86 c15 -15 24 -37 26
-63 l2 -40 -132 -3 c-73 -1 -133 0 -133 3 0 31 67 106 110 124 38 16 100 6
127 -21z"/>
<path d="M4760 5074 c-19 -8 -42 -22 -52 -31 -17 -15 -18 -14 -18 10 0 24 -4
27 -35 27 -19 0 -35 -3 -35 -7 0 -5 -16 -100 -35 -213 -44 -259 -44 -250 -1
-250 39 0 34 -14 66 180 11 69 27 139 36 156 21 41 63 64 117 64 42 0 45 2 51
31 3 17 6 35 6 40 0 14 -62 10 -100 -7z"/>
<path d="M5535 5074 c-58 -20 -106 -64 -140 -125 -40 -74 -48 -195 -16 -256
30 -61 73 -87 148 -91 75 -5 134 19 186 77 71 78 98 220 58 306 -22 49 -48 73
-98 91 -48 17 -87 16 -138 -2z m132 -74 c54 -33 65 -125 26 -220 -28 -69 -85
-110 -153 -110 -96 0 -132 81 -94 209 33 112 140 171 221 121z"/>
<path d="M6087 5076 c-22 -8 -50 -25 -64 -38 l-26 -23 5 33 c4 31 4 32 -32 32
l-37 0 -37 -222 c-20 -123 -36 -229 -36 -235 0 -8 14 -13 34 -13 41 0 38 -9
67 172 23 142 39 185 82 213 39 25 93 30 122 11 45 -30 47 -54 20 -216 -32
-189 -33 -180 10 -180 40 0 35 -12 65 166 32 191 26 255 -26 289 -35 22 -103
27 -147 11z"/>
<path d="M6551 5073 c-25 -9 -66 -37 -92 -63 -85 -85 -114 -246 -59 -334 46
-76 170 -99 268 -50 53 26 101 79 86 93 -19 18 -62 21 -68 6 -10 -28 -69 -55
-119 -55 -69 0 -104 21 -117 71 -21 79 -21 79 169 79 l169 0 6 31 c17 89 -12
178 -71 212 -44 25 -119 30 -172 10z m146 -88 c16 -18 23 -39 23 -66 l0 -39
-130 0 c-144 0 -146 1 -106 61 53 78 165 101 213 44z"/>
<path d="M4924 5063 c22 -76 87 -446 82 -466 -3 -14 -22 -42 -41 -63 -29 -30
-40 -36 -63 -31 -24 5 -30 2 -40 -26 -13 -35 -4 -47 38 -47 52 1 108 37 143
92 36 57 297 542 297 552 0 3 -18 6 -39 6 l-39 0 -93 -180 c-51 -99 -96 -180
-99 -180 -3 0 -16 60 -29 133 -42 243 -37 227 -83 227 -33 0 -39 -3 -34 -17z"/>
<path d="M2770 4249 c-30 -5 -64 -13 -75 -18 -11 -5 -40 -17 -65 -27 -46 -19
-102 -53 -108 -66 -2 -5 -9 -8 -16 -8 -16 0 -142 -134 -162 -171 -11 -23 -20
-29 -32 -23 -36 16 -180 16 -245 0 -70 -18 -187 -72 -187 -87 0 -5 -6 -9 -12
-9 -38 0 -188 -206 -188 -258 0 -10 -6 -24 -12 -30 -18 -18 -18 -255 1 -302
27 -72 56 -130 63 -130 5 0 8 -6 8 -14 0 -22 119 -139 160 -159 8 -4 29 -15
45 -25 l30 -19 5 -174 c5 -179 8 -193 46 -244 21 -29 22 -40 27 -300 4 -234 8
-279 25 -335 28 -89 44 -134 51 -140 3 -3 17 -26 31 -52 13 -27 27 -48 31 -48
3 0 11 -11 17 -24 23 -51 163 -184 243 -231 67 -39 172 -85 196 -85 10 0 24
-5 30 -11 27 -27 399 -27 427 1 6 6 19 10 29 10 10 0 35 7 55 16 155 67 270
153 359 268 l53 68 0 -205 c0 -127 -4 -208 -10 -212 -5 -3 -10 -14 -10 -23 0
-40 -80 -82 -155 -82 -69 0 -73 -8 -56 -104 13 -75 55 -162 100 -206 46 -44
139 -100 169 -100 10 0 24 -6 30 -12 8 -8 60 -14 152 -16 77 -3 140 -7 140
-11 0 -3 17 -15 38 -26 20 -10 44 -24 52 -31 23 -17 167 -70 235 -85 76 -18
266 -18 325 -1 151 43 184 57 275 113 59 35 64 36 180 41 79 4 134 12 160 23
100 42 115 49 115 57 0 4 6 8 14 8 21 0 118 109 144 162 16 32 23 67 25 115
l2 68 -60 5 c-91 9 -120 24 -147 78 -22 44 -23 60 -26 267 l-2 220 20 -25 c11
-14 24 -30 30 -37 5 -7 10 -16 10 -22 0 -16 198 -211 215 -211 2 0 21 -12 42
-26 38 -26 46 -30 138 -66 177 -70 386 -74 560 -11 126 46 241 117 325 202 56
57 129 154 151 201 87 185 99 251 99 548 l0 233 30 37 30 37 2 183 3 183 40
22 c22 12 42 25 43 30 2 4 9 7 16 7 14 0 94 75 129 122 91 119 127 289 93 443
-11 54 -55 158 -81 194 -29 40 -137 139 -171 156 -21 11 -41 23 -44 26 -3 3
-30 15 -60 25 -43 15 -83 19 -187 19 l-132 0 -16 27 c-30 52 -117 138 -185
183 -37 25 -71 45 -75 45 -4 0 -21 6 -38 14 -136 62 -338 62 -474 0 -17 -8
-34 -14 -37 -14 -9 0 -108 -62 -135 -85 -45 -38 -97 -94 -121 -132 l-23 -38
-131 0 c-141 0 -191 -12 -296 -72 -59 -33 -158 -136 -193 -200 -35 -65 -67
-165 -67 -210 l0 -34 -37 20 c-113 60 -194 81 -313 81 -111 0 -207 -23 -293
-71 -23 -13 -21 -16 -36 56 -46 214 -199 378 -404 430 -67 17 -193 20 -233 5
-22 -9 -30 -7 -45 9 -11 11 -19 24 -19 30 0 5 -35 44 -78 88 -156 156 -349
218 -572 182z m505 -1836 c42 -79 123 -164 200 -209 l63 -37 4 -186 c3 -166
-3 -236 -21 -251 -4 -3 -11 -16 -17 -30 -41 -93 -210 -237 -344 -294 -152 -64
-395 -64 -537 0 -17 8 -33 14 -36 14 -22 0 -144 87 -197 140 -108 107 -164
205 -199 352 -18 74 -21 117 -21 312 l0 226 543 0 542 0 20 -37z m3476 15 c1
-7 2 -87 4 -178 4 -316 -20 -437 -118 -582 -74 -110 -180 -201 -297 -255 -83
-38 -103 -44 -204 -58 -139 -20 -276 0 -406 59 -88 40 -199 133 -262 220 -102
138 -108 157 -108 367 l0 166 28 14 c95 49 222 168 222 209 0 5 5 10 10 10 6
0 10 6 10 14 0 8 6 17 13 19 6 3 258 6 560 6 431 1 547 -2 548 -11z m-1603
-995 c-1 -156 -7 -285 -13 -293 -5 -8 -19 -43 -31 -77 -28 -81 -91 -173 -169
-248 -72 -70 -76 -72 -175 -121 -41 -20 -83 -41 -93 -46 -10 -5 -64 -15 -120
-23 -190 -26 -374 20 -527 133 -102 75 -197 206 -247 339 -24 65 -26 79 -30
341 l-5 272 707 0 707 0 -4 -277z"/>
<path d="M2497 2313 c-53 -28 -75 -117 -41 -169 19 -28 63 -54 93 -54 51 0
111 66 111 123 0 51 -68 119 -117 116 -10 -1 -30 -8 -46 -16z"/>
<path d="M3190 2317 c-71 -33 -88 -132 -34 -190 44 -48 98 -48 149 -1 25 23
28 33 28 83 0 63 -13 85 -66 109 -33 14 -44 14 -77 -1z"/>
<path d="M2388 1969 c-15 -11 -37 -41 -48 -66 -21 -47 -27 -127 -11 -138 5 -3
12 -19 16 -35 4 -17 10 -30 14 -30 4 0 12 -10 18 -23 14 -29 89 -66 152 -74
106 -12 262 37 328 105 27 27 28 27 60 -2 56 -52 205 -106 296 -106 47 0 147
28 147 41 0 5 5 9 11 9 34 0 79 97 79 169 0 74 -11 104 -52 142 -25 23 -42 29
-76 29 -54 0 -65 -21 -28 -55 28 -26 32 -45 16 -76 -18 -33 -67 -24 -148 26
-40 25 -97 52 -127 60 -48 12 -60 12 -99 -1 -38 -13 -50 -13 -92 -1 -40 12
-56 12 -108 0 -33 -8 -63 -18 -66 -21 -3 -4 -17 -13 -32 -21 -15 -8 -37 -23
-48 -33 -26 -24 -81 -34 -109 -19 -31 17 -29 73 4 95 15 10 22 22 19 31 -9 23
-83 19 -116 -6z"/>
<path d="M5638 2323 c-43 -7 -83 -66 -83 -122 0 -119 126 -170 207 -84 19 20
23 35 23 84 0 52 -3 62 -30 88 -31 30 -70 41 -117 34z"/>
<path d="M6375 2322 c-53 -18 -102 -91 -90 -135 17 -56 33 -78 72 -99 38 -20
45 -21 79 -9 49 18 67 37 84 89 11 34 11 48 2 63 -7 10 -12 25 -12 32 0 18
-37 48 -74 58 -34 10 -32 10 -61 1z"/>
<path d="M5702 1854 c-13 -9 -22 -26 -22 -41 0 -30 30 -103 42 -103 4 0 8 -6
8 -13 0 -23 86 -96 149 -127 53 -27 70 -30 150 -30 157 0 266 66 336 204 42
83 17 137 -57 121 -23 -6 -34 -17 -50 -51 -28 -64 -89 -121 -150 -139 -64 -19
-82 -19 -146 0 -60 18 -137 85 -147 128 -8 30 -48 67 -74 67 -9 0 -27 -7 -39
-16z"/>
<path d="M4050 1593 c-68 -13 -112 -112 -79 -176 16 -30 58 -66 85 -73 33 -8
90 13 113 42 26 33 34 84 19 129 -20 58 -75 90 -138 78z"/>
<path d="M4774 1589 c-60 -17 -95 -91 -73 -156 47 -142 229 -106 229 46 0 28
-4 51 -10 51 -5 0 -10 6 -10 13 -1 34 -83 62 -136 46z"/>
<path d="M4115 1126 c-28 -20 -23 -84 11 -137 33 -53 109 -129 129 -129 8 0
15 -4 15 -8 0 -4 24 -16 53 -26 83 -28 214 -20 290 18 58 30 140 108 152 146
3 11 10 20 15 20 4 0 11 18 15 39 18 106 -86 124 -131 22 -13 -28 -39 -61 -65
-83 -121 -97 -298 -60 -369 78 -38 74 -72 92 -115 60z"/>
</g>
</svg>
